<svg width="35" height="36" viewBox="0 0 35 36" fill="none" xmlns="http://www.w3.org/2000/svg"><path d="M21.8202 3.6675C18.062 1.99425 13.7931 1.88246 9.95251 3.35673C6.11191 4.83099 3.01427 7.77054 1.34102 11.5287C-0.332227 15.2869 -0.444016 19.5558 1.03025 23.3964C2.50451 27.237 5.44407 30.3347 9.20224 32.0079L21.8202 3.6675Z" fill="#363472"/><path fill-rule="evenodd" clip-rule="evenodd" d="M22.5445 34.7504C17.8863 36.5385 12.7086 36.403 8.15036 34.3735L12.4559 24.7031C12.8082 24.8904 13.1743 25.0548 13.5519 25.1944C15.1298 25.7778 16.8369 25.9027 18.4573 25.5535C20.0777 25.2042 21.5385 24.3964 22.655 23.2322C23.7715 22.068 24.4936 20.5998 24.7298 19.0132C24.966 17.4267 24.7058 15.7931 23.9821 14.319L20.3673 6.93382L23.4544 0C28.0126 2.02945 31.578 5.78651 33.3661 10.4447C35.1542 15.1029 35.0186 20.2806 32.9892 24.8388C30.9597 29.397 27.2026 32.9623 22.5445 34.7504ZM20.3673 6.93382L12.7047 10.1496C11.1962 10.7984 9.93587 11.8698 9.08321 13.2285C8.23056 14.5872 7.82385 16.172 7.91454 17.7824C8.00523 19.3929 8.58924 20.9568 9.5927 22.2761C10.356 23.2797 11.336 24.1076 12.4559 24.7031L20.3673 6.93382Z" fill="#FF99BB"/></svg>